<svg xmlns="http://www.w3.org/2000/svg" width="625" height="640" viewBox="0 0 625 640">
<g>
<path d="M 387.50 635.55 L 370.50 639.93 L 625.00 640.00 L 0.00 640.00 L 0.00 0.00 L 625.00 0.00 L 486.75 0.11 C397.32,0.18 350.09,0.55 353.00,1.16 C374.00,5.56 395.81,12.26 411.71,19.18 C419.45,22.56 420.15,24.00 414.07,24.00 C401.15,24.00 377.65,30.63 361.98,38.69 C340.59,49.69 326.06,62.81 300.23,94.44 C291.66,104.92 279.90,118.25 274.08,124.06 C241.16,156.93 197.85,174.00 147.50,173.95 C132.75,173.93 112.84,172.17 111.43,170.76 C110.46,169.79 123.39,150.81 133.94,137.69 C158.08,107.70 191.09,82.00 231.50,61.75 C248.36,53.30 272.78,43.09 281.27,40.95 C285.94,39.78 288.57,38.00 285.64,38.00 C281.84,38.00 253.48,43.30 245.00,45.59 C218.32,52.81 197.16,61.68 175.85,74.58 C122.38,106.94 84.92,152.52 62.50,212.50 C56.89,227.51 53.05,240.99 48.82,260.50 L 47.52 266.50 L 47.16 262.00 C46.10,248.82 51.66,199.39 56.09,182.61 C65.00,148.88 71.43,132.25 84.00,110.40 C102.46,78.32 124.80,54.77 155.00,35.58 C180.74,19.22 203.76,10.23 242.00,1.64 C247.83,0.33 235.66,0.17 124.25,0.09 L 0.00 0.00 L 0.14 160.25 C0.26,297.83 0.45,318.28 1.54,304.79 C4.50,268.04 12.38,234.72 25.23,204.57 C30.42,192.40 40.89,171.39 44.96,164.97 L 47.16 161.50 L 46.70 164.50 C46.45,166.15 45.09,172.90 43.68,179.50 C38.75,202.70 36.79,223.97 36.84,253.87 C36.89,285.05 38.70,305.79 44.62,343.00 C50.56,380.36 56.33,399.54 69.45,425.50 C89.14,464.47 116.32,492.83 149.50,509.04 C171.36,519.72 185.57,523.11 209.00,523.25 C230.96,523.37 246.33,519.86 265.00,510.46 C297.16,494.28 317.63,467.40 325.13,431.50 C326.92,422.94 327.15,419.27 326.69,406.00 C326.17,391.16 325.49,387.10 321.61,375.68 C316.02,359.21 302.50,342.21 286.50,331.53 C276.41,324.79 264.24,319.10 241.50,310.49 C230.50,306.32 218.35,301.48 214.50,299.74 C204.82,295.35 189.54,286.56 183.26,281.77 C165.05,267.87 151.84,247.52 147.58,226.79 C145.49,216.61 145.61,213.03 147.83,219.00 C153.08,233.08 162.91,246.33 175.62,256.47 C194.77,271.74 212.77,279.64 260.00,293.50 C296.34,304.17 316.77,315.29 334.24,333.90 C349.33,349.98 358.58,372.51 361.11,399.40 C363.87,428.58 354.18,463.87 335.56,492.50 C310.90,530.41 267.67,559.33 223.50,567.47 C218.55,568.39 212.56,569.57 210.19,570.10 C202.00,571.93 172.29,567.43 156.37,561.96 C153.25,560.88 149.97,560.01 149.09,560.03 C144.85,560.09 170.45,573.72 182.50,577.80 C201.20,584.13 210.31,585.51 233.00,585.43 C250.39,585.37 253.88,585.07 265.30,582.60 C289.77,577.32 310.53,568.85 332.50,555.19 C373.51,529.69 407.66,489.10 426.47,443.50 C428.52,438.55 430.60,433.60 431.10,432.50 C432.42,429.61 431.21,446.63 429.35,457.00 C422.56,495.02 405.41,529.08 379.58,555.83 C360.47,575.61 339.15,589.44 312.17,599.53 C304.34,602.46 302.31,603.57 303.79,604.12 C304.87,604.52 313.71,605.41 323.45,606.11 C385.85,610.58 453.90,591.30 511.50,552.83 C533.11,538.41 544.75,529.04 563.36,511.11 C580.51,494.60 551.20,532.74 531.59,552.46 C505.26,578.94 481.27,596.32 448.05,612.98 C427.13,623.46 410.93,629.50 387.50,635.55 ZM 408.05 570.08 C399.55,572.24 392.12,573.97 391.55,573.94 C390.43,573.87 393.14,572.51 407.50,565.88 C429.03,555.96 456.28,539.10 474.82,524.25 C493.83,509.01 513.66,488.42 528.16,468.87 C545.29,445.77 562.59,411.31 569.02,387.50 C569.47,385.85 570.70,381.35 571.77,377.50 C576.52,360.38 580.00,338.40 580.00,325.57 C580.00,315.74 578.76,313.42 577.69,321.22 C575.85,334.63 564.26,368.24 554.49,388.50 C538.41,421.84 521.72,445.62 497.62,469.50 C485.86,481.15 469.48,494.95 468.65,493.90 C468.05,493.14 465.97,482.45 464.49,472.59 C462.79,461.30 462.44,424.96 463.94,417.30 C464.46,414.66 465.61,408.67 466.49,404.00 C468.38,393.95 472.13,381.96 476.12,373.18 C477.70,369.70 479.00,366.74 479.00,366.60 C479.00,366.46 480.91,363.00 483.25,358.92 C493.64,340.81 501.60,331.18 525.83,307.50 C557.75,276.30 569.12,262.00 578.92,240.79 C584.74,228.19 590.99,204.84 591.00,195.63 C591.00,190.71 593.46,194.16 598.60,206.32 C609.24,231.45 615.97,254.82 620.11,281.00 C622.08,293.46 622.40,299.16 622.37,321.50 C622.34,343.70 622.01,349.38 620.12,360.37 C612.47,404.78 596.67,440.77 570.83,472.65 C534.50,517.47 474.90,553.14 408.05,570.08 ZM 0.14 486.75 L 0.00 640.00 L 128.25 639.93 L 256.50 639.85 L 245.00 637.07 C205.87,627.59 174.21,613.88 142.57,592.72 C110.29,571.13 77.54,538.95 57.26,508.88 C23.18,458.36 5.67,407.25 1.13,345.00 C0.62,338.07 0.23,394.34 0.14,486.75 Z" fill="rgb(42,41,94)"/>
<path d="M 147.37 225.73 C146.60,222.14 145.96,218.33 145.43,214.25 C144.61,207.95 145.73,207.50 149.24,212.75 C154.87,221.15 170.81,235.93 182.11,243.22 C204.35,257.56 223.45,263.13 279.00,271.49 C318.91,277.50 343.16,286.62 362.29,302.82 C369.93,309.30 379.66,321.72 383.75,330.24 C385.26,333.39 386.73,335.98 387.01,335.99 C387.29,335.99 388.55,332.06 389.81,327.25 C397.01,299.72 407.99,279.90 425.76,262.33 C436.22,251.98 444.49,245.36 477.11,221.24 C495.53,207.62 512.66,189.65 523.53,172.55 C532.06,159.14 539.55,139.65 543.05,121.74 C543.78,118.02 544.70,115.32 545.10,115.74 C546.46,117.17 550.12,129.48 551.56,137.50 C554.61,154.46 552.49,174.04 545.56,192.99 C543.16,199.56 533.79,216.92 528.15,225.26 C520.75,236.20 510.79,248.36 493.69,267.34 C455.84,309.36 448.21,322.53 430.95,375.68 C426.51,389.33 422.29,402.08 421.56,404.00 C420.82,405.92 419.54,409.30 418.69,411.50 C402.61,453.50 384.22,482.10 355.38,510.00 C303.40,560.28 239.56,580.42 175.38,566.87 C189.56,569.71 204.71,571.32 210.19,570.10 C212.56,569.57 218.55,568.39 223.50,567.47 C267.67,559.33 310.90,530.41 335.56,492.50 C354.18,463.87 363.87,428.58 361.11,399.40 C358.58,372.51 349.33,349.98 334.24,333.90 C316.77,315.29 296.34,304.17 260.00,293.50 C212.77,279.64 194.77,271.74 175.62,256.47 C162.91,246.33 153.08,233.08 147.83,219.00 C145.69,213.24 145.50,216.37 147.37,225.73 ZM 226.53 492.58 C213.34,494.91 195.64,494.23 182.00,490.89 C156.48,484.64 130.69,467.90 114.63,447.17 C88.71,413.69 78.81,383.27 78.79,337.00 C78.78,315.53 79.26,311.05 83.92,289.00 C85.40,281.97 91.92,263.19 95.37,256.00 C100.74,244.81 106.21,235.00 107.08,235.00 C107.53,235.00 107.25,237.14 106.44,239.75 C103.73,248.54 99.88,264.30 97.73,275.44 C95.88,284.98 95.59,290.07 95.58,312.50 C95.58,336.98 95.74,339.28 98.33,351.86 C100.79,363.79 105.45,380.05 107.98,385.50 C108.49,386.60 110.94,391.92 113.42,397.32 C129.54,432.42 159.81,460.47 194.00,472.00 C216.99,479.75 244.36,479.77 266.41,472.06 L 267.10 471.82 C271.48,470.29 272.61,469.89 272.90,470.23 C273.00,470.34 273.00,470.55 273.00,470.82 C273.00,470.86 273.00,470.91 273.00,470.95 C273.00,471.47 270.12,473.96 266.60,476.47 C255.98,484.04 241.14,490.01 226.53,492.58 ZM 379.81 259.18 C372.78,261.88 360.26,262.49 353.10,260.48 C330.99,254.27 316.87,233.87 318.23,210.08 C318.69,202.06 319.20,200.17 322.99,192.52 C327.92,182.57 333.77,176.76 343.97,171.71 C349.60,168.92 351.68,168.45 359.83,168.15 C373.60,167.64 381.34,170.13 390.19,177.93 C401.30,187.72 407.00,200.84 407.00,216.60 C407.00,236.76 396.85,252.65 379.81,259.18 ZM 521.46 139.95 C520.06,144.38 518.82,147.99 518.71,147.98 C517.89,147.92 516.04,145.98 513.98,143.00 C512.65,141.07 511.10,138.96 510.53,138.31 C509.96,137.66 506.83,133.83 503.57,129.81 C490.46,113.66 469.28,97.57 446.50,86.46 C421.24,74.14 400.08,68.08 373.25,65.50 C369.27,65.11 366.26,64.39 366.56,63.90 C367.41,62.52 376.87,58.33 383.00,56.61 C412.01,48.48 446.06,56.83 481.76,80.84 C500.45,93.41 518.02,109.20 522.01,117.02 C524.76,122.40 524.57,130.09 521.46,139.95 ZM 80.73 538.65 C96.01,555.64 113.93,571.99 132.13,585.39 C113.26,571.66 96.04,555.96 80.73,538.65 ZM 0.14 486.75 C0.23,394.34 0.62,338.07 1.13,345.00 C1.42,348.94 1.75,352.83 2.15,356.68 C1.82,353.67 1.49,350.46 1.15,347.00 C0.64,341.96 0.24,399.85 0.15,489.25 L 0.00 640.00 ZM 184.38 616.32 C203.10,624.98 222.85,631.70 245.00,637.07 C221.94,631.48 203.04,625.07 184.38,616.32 ZM 173.86 273.59 C168.83,268.74 164.49,263.46 160.56,257.50 C156.94,252.01 154.06,246.53 151.77,240.64 C156.56,252.66 164.20,264.07 173.86,273.59 ZM 3.32 366.88 C4.72,377.72 6.55,388.23 8.85,398.48 C6.43,388.11 4.85,379.17 3.32,366.88 ZM 3.46 286.45 C4.72,276.42 6.48,266.38 8.69,256.49 C6.54,266.20 4.80,276.18 3.46,286.45 ZM 207.17 296.15 C204.22,294.65 201.30,293.05 198.00,291.17 C195.85,289.95 193.79,288.72 191.81,287.47 C196.53,290.36 202.07,293.50 207.17,296.15 ZM 35.38 471.95 C39.34,479.72 43.67,487.41 48.37,495.08 C43.72,487.56 39.39,479.84 35.38,471.95 ZM 221.35 302.61 C226.86,304.84 234.42,307.80 241.50,310.49 C232.98,307.26 226.60,304.78 221.35,302.61 Z" fill="rgb(102,118,172)"/>
<path d="M 2.57 293.89 C3.53,284.64 4.91,275.35 6.69,266.14 C5.39,272.88 4.32,279.67 3.46,286.45 C3.14,288.91 2.85,291.39 2.57,293.89 Z" fill="rgb(141,142,166)"/>
<path d="M 0.15 489.25 C0.24,399.85 0.64,341.96 1.15,347.00 C4.01,375.73 5.94,387.46 11.10,407.59 C32.39,490.62 87.04,562.00 162.00,604.67 C188.66,619.85 212.77,629.26 245.00,637.07 L 256.50 639.85 L 128.25 639.93 L 0.00 640.00 L 0.15 489.25 ZM 387.50 635.55 C410.93,629.50 427.13,623.46 448.05,612.98 C481.27,596.32 505.26,578.94 531.59,552.46 C551.20,532.74 580.51,494.60 563.36,511.11 C544.75,529.04 533.11,538.41 511.50,552.83 C453.90,591.30 385.85,610.58 323.45,606.11 C313.71,605.41 304.87,604.52 303.79,604.12 C302.31,603.57 304.34,602.46 312.17,599.53 C339.15,589.44 360.47,575.61 379.58,555.83 C405.41,529.08 422.56,495.02 429.35,457.00 C431.21,446.63 432.42,429.61 431.10,432.50 C430.60,433.60 428.52,438.55 426.47,443.50 C407.66,489.10 373.51,529.69 332.50,555.19 C310.53,568.85 289.77,577.32 265.30,582.60 C253.88,585.07 250.39,585.37 233.00,585.43 C210.31,585.51 201.20,584.13 182.50,577.80 C170.45,573.72 144.85,560.09 149.09,560.03 C149.97,560.01 153.25,560.88 156.37,561.96 C159.50,563.03 167.11,565.04 173.28,566.41 C238.17,580.86 302.83,560.83 355.38,510.00 C384.22,482.10 402.61,453.50 418.69,411.50 C419.54,409.30 420.82,405.92 421.56,404.00 C422.29,402.08 426.51,389.33 430.95,375.68 C448.21,322.53 455.84,309.36 493.69,267.34 C510.79,248.36 520.75,236.20 528.15,225.26 C533.79,216.92 543.16,199.56 545.56,192.99 C552.49,174.04 554.61,154.46 551.56,137.50 C550.12,129.48 546.46,117.17 545.10,115.74 C544.70,115.32 543.78,118.02 543.05,121.74 C539.55,139.65 532.06,159.14 523.53,172.55 C512.66,189.65 495.53,207.62 477.11,221.24 C444.49,245.36 436.22,251.98 425.76,262.33 C407.99,279.90 397.01,299.72 389.81,327.25 C388.55,332.06 387.29,335.99 387.01,335.99 C386.73,335.98 385.26,333.39 383.75,330.24 C379.66,321.72 369.93,309.30 362.29,302.82 C343.16,286.62 318.91,277.50 279.00,271.49 C223.45,263.13 204.35,257.56 182.11,243.22 C170.81,235.93 154.87,221.15 149.24,212.75 C145.73,207.50 144.61,207.95 145.43,214.25 C147.76,232.15 152.19,244.80 160.56,257.50 C169.68,271.33 181.01,281.52 198.00,291.17 C210.56,298.30 217.62,301.44 241.50,310.49 C264.24,319.10 276.41,324.79 286.50,331.53 C302.50,342.21 316.02,359.21 321.61,375.68 C325.49,387.10 326.17,391.16 326.69,406.00 C327.15,419.27 326.92,422.94 325.13,431.50 C317.63,467.40 297.16,494.28 265.00,510.46 C246.33,519.86 230.96,523.37 209.00,523.25 C185.57,523.11 171.36,519.72 149.50,509.04 C116.32,492.83 89.14,464.47 69.45,425.50 C56.33,399.54 50.56,380.36 44.62,343.00 C38.70,305.79 36.89,285.05 36.84,253.87 C36.79,223.97 38.75,202.70 43.68,179.50 C45.09,172.90 46.45,166.15 46.70,164.50 L 47.16 161.50 L 44.96 164.97 C40.89,171.39 30.42,192.40 25.23,204.57 C12.89,233.51 4.64,267.56 1.95,300.58 C1.38,307.64 0.71,313.63 0.46,313.88 C0.21,314.13 0.00,243.61 0.00,157.17 L 0.00 0.00 L 124.25 0.09 C235.66,0.17 247.83,0.33 242.00,1.64 C203.76,10.23 180.74,19.22 155.00,35.58 C124.80,54.77 102.46,78.32 84.00,110.40 C71.43,132.25 65.00,148.88 56.09,182.61 C51.66,199.39 46.10,248.82 47.16,262.00 L 47.52 266.50 L 48.82 260.50 C53.05,240.99 56.89,227.51 62.50,212.50 C84.92,152.52 122.38,106.94 175.85,74.58 C197.16,61.68 218.32,52.81 245.00,45.59 C253.48,43.30 281.84,38.00 285.64,38.00 C288.57,38.00 285.94,39.78 281.27,40.95 C272.78,43.09 248.36,53.30 231.50,61.75 C191.09,82.00 158.08,107.70 133.94,137.69 C123.39,150.81 110.46,169.79 111.43,170.76 C112.84,172.17 132.75,173.93 147.50,173.95 C197.85,174.00 241.16,156.93 274.08,124.06 C279.90,118.25 291.66,104.92 300.23,94.44 C326.06,62.81 340.59,49.69 361.98,38.69 C377.65,30.63 401.15,24.00 414.07,24.00 C420.15,24.00 419.45,22.56 411.71,19.18 C395.81,12.26 374.00,5.56 353.00,1.16 C350.09,0.55 397.32,0.18 486.75,0.11 L 625.00 0.00 L 625.00 320.00 L 625.00 640.00 L 497.75 639.97 L 370.50 639.93 L 387.50 635.55 ZM 408.05 570.08 C474.90,553.14 534.50,517.47 570.83,472.65 C596.67,440.77 612.47,404.78 620.12,360.37 C622.01,349.38 622.34,343.70 622.37,321.50 C622.40,299.16 622.08,293.46 620.11,281.00 C615.97,254.82 609.24,231.45 598.60,206.32 C593.46,194.16 591.00,190.71 591.00,195.63 C590.99,204.84 584.74,228.19 578.92,240.79 C569.12,262.00 557.75,276.30 525.83,307.50 C501.60,331.18 493.64,340.81 483.25,358.92 C480.91,363.00 479.00,366.46 479.00,366.60 C479.00,366.74 477.70,369.70 476.12,373.18 C472.13,381.96 468.38,393.95 466.49,404.00 C465.61,408.67 464.46,414.66 463.94,417.30 C462.44,424.96 462.79,461.30 464.49,472.59 C465.97,482.45 468.05,493.14 468.65,493.90 C469.48,494.95 485.86,481.15 497.62,469.50 C521.72,445.62 538.41,421.84 554.49,388.50 C564.26,368.24 575.85,334.63 577.69,321.22 C578.76,313.42 580.00,315.74 580.00,325.57 C580.00,338.40 576.52,360.38 571.77,377.50 C570.70,381.35 569.47,385.85 569.02,387.50 C562.59,411.31 545.29,445.77 528.16,468.87 C513.66,488.42 493.83,509.01 474.82,524.25 C456.28,539.10 429.03,555.96 407.50,565.88 C393.14,572.51 390.43,573.87 391.55,573.94 C392.12,573.97 399.55,572.24 408.05,570.08 ZM 226.53 492.58 C241.14,490.01 255.98,484.04 266.60,476.47 C270.12,473.96 273.00,471.47 273.00,470.95 C273.00,469.72 273.25,469.67 266.41,472.06 C244.36,479.77 216.99,479.75 194.00,472.00 C159.81,460.47 129.54,432.42 113.42,397.32 C110.94,391.92 108.49,386.60 107.98,385.50 C105.45,380.05 100.79,363.79 98.33,351.86 C95.74,339.28 95.58,336.98 95.58,312.50 C95.59,290.07 95.88,284.98 97.73,275.44 C99.88,264.30 103.73,248.54 106.44,239.75 C107.25,237.14 107.53,235.00 107.08,235.00 C106.21,235.00 100.74,244.81 95.37,256.00 C91.92,263.19 85.40,281.97 83.92,289.00 C79.26,311.05 78.78,315.53 78.79,337.00 C78.81,383.27 88.71,413.69 114.63,447.17 C130.69,467.90 156.48,484.64 182.00,490.89 C195.64,494.23 213.34,494.91 226.53,492.58 ZM 379.81 259.18 C396.85,252.65 407.00,236.76 407.00,216.60 C407.00,200.84 401.30,187.72 390.19,177.93 C381.34,170.13 373.60,167.64 359.83,168.15 C351.68,168.45 349.60,168.92 343.97,171.71 C333.77,176.76 327.92,182.57 322.99,192.52 C319.20,200.17 318.69,202.06 318.23,210.08 C316.87,233.87 330.99,254.27 353.10,260.48 C360.26,262.49 372.78,261.88 379.81,259.18 ZM 521.46 139.95 C524.57,130.09 524.76,122.40 522.01,117.02 C518.02,109.20 500.45,93.41 481.76,80.84 C446.06,56.83 412.01,48.48 383.00,56.61 C376.87,58.33 367.41,62.52 366.56,63.90 C366.26,64.39 369.27,65.11 373.25,65.50 C400.08,68.08 421.24,74.14 446.50,86.46 C469.28,97.57 490.46,113.66 503.57,129.81 C506.83,133.83 509.96,137.66 510.53,138.31 C511.10,138.96 512.65,141.07 513.98,143.00 C516.04,145.98 517.89,147.92 518.71,147.98 C518.82,147.99 520.06,144.38 521.46,139.95 Z" fill="rgb(254,254,254)"/>
</g>
</svg>